<svg xmlns="http://www.w3.org/2000/svg" viewBox="0 0 600 600" width="100%" height="100%">
  <defs>
    <filter id="kc-sh" x="-15%" y="-15%" width="135%" height="145%">
      <feDropShadow dx="0" dy="16" stdDeviation="14" flood-color="#3C332E" flood-opacity="0.12"/>
    </filter>
    <linearGradient id="kc-bg" x1="0%" y1="0%" x2="100%" y2="100%">
      <stop offset="0%" stop-color="#FAF5EE"/>
      <stop offset="100%" stop-color="#EFE6D8"/>
    </linearGradient>
  </defs>

  <rect width="600" height="600" fill="url(#kc-bg)"/>
  <line x1="80" y1="110" x2="520" y2="110" stroke="#C5A47E" stroke-width="4" stroke-linecap="round"/>
  <circle cx="80" cy="110" r="6" fill="#3C332E"/>
  <circle cx="520" cy="110" r="6" fill="#3C332E"/>

  <g id="cherry-charm" filter="url(#kc-sh)">
    <line x1="180" y1="110" x2="180" y2="230" stroke="#D1BDB2" stroke-width="2"/>
    <circle cx="180" cy="230" r="14" fill="none" stroke="#C5A47E" stroke-width="3.5"/>
    <path d="M180 244 Q160 300 150 330" fill="none" stroke="#7E8F7A" stroke-width="3" stroke-linecap="round"/>
    <path d="M180 244 Q200 300 215 330" fill="none" stroke="#7E8F7A" stroke-width="3" stroke-linecap="round"/>
    <path d="M180 244 Q195 235 210 250 Q195 260 180 244 Z" fill="#8A9A86"/>
    <circle cx="145" cy="345" r="24" fill="#B98F8B"/>
    <circle cx="140" cy="338" r="8" fill="#D9B7B2"/>
    <circle cx="145" cy="345" r="18" fill="none" stroke="#FAF4EF" stroke-width="1.5" stroke-dasharray="3 3"/>
    <circle cx="220" cy="345" r="24" fill="#A77873"/>
    <circle cx="215" cy="338" r="8" fill="#C59E9A"/>
    <circle cx="220" cy="345" r="18" fill="none" stroke="#FAF4EF" stroke-width="1.5" stroke-dasharray="3 3"/>
    <text x="180" y="420" text-anchor="middle" font-family="'Cormorant Garamond', serif" font-size="13" fill="#3C332E">Cerises Jumelées</text>
  </g>

  <g id="bellflower-charm" filter="url(#kc-sh)">
    <line x1="300" y1="110" x2="300" y2="210" stroke="#D1BDB2" stroke-width="2"/>
    <circle cx="300" cy="210" r="14" fill="none" stroke="#C5A47E" stroke-width="3.5"/>
    <circle cx="300" cy="235" r="7" fill="#E6D7CB"/>
    <path d="M275 290 C270 250, 330 250, 325 290 C340 300, 260 300, 275 290 Z" fill="#D9B7B2"/>
    <path d="M280 288 C280 255, 320 255, 320 288 Z" fill="#B98F8B"/>
    <path d="M290 300 L285 365 M295 300 L293 370 M300 300 L300 375 M305 300 L307 370 M310 300 L315 365" stroke="#FAF4EE" stroke-width="2.5" stroke-linecap="round"/>
    <text x="300" y="420" text-anchor="middle" font-family="'Cormorant Garamond', serif" font-size="13" fill="#3C332E">Clochette &amp; Frange</text>
  </g>

  <g id="strawberry-charm" filter="url(#kc-sh)">
    <line x1="420" y1="110" x2="420" y2="240" stroke="#D1BDB2" stroke-width="2"/>
    <circle cx="420" cy="240" r="14" fill="none" stroke="#C5A47E" stroke-width="3.5"/>
    <path d="M420 255 L405 270 L420 265 L435 270 Z" fill="#8A9A86"/>
    <path d="M395 270 C390 320, 420 350, 420 350 C420 350, 450 320, 445 270 Z" fill="#B98F8B"/>
    <circle cx="410" cy="285" r="1.5" fill="#FAF5EE"/>
    <circle cx="430" cy="285" r="1.5" fill="#FAF5EE"/>
    <circle cx="420" cy="300" r="1.5" fill="#FAF5EE"/>
    <circle cx="412" cy="315" r="1.5" fill="#FAF5EE"/>
    <circle cx="428" cy="315" r="1.5" fill="#FAF5EE"/>
    <circle cx="420" cy="330" r="1.5" fill="#FAF5EE"/>
    <text x="420" y="420" text-anchor="middle" font-family="'Cormorant Garamond', serif" font-size="13" fill="#3C332E">Fraise Miniature</text>
  </g>

  <text x="300" y="520" text-anchor="middle" font-family="'Cormorant Garamond', serif" font-size="15" fill="#3C332E" letter-spacing="3">AUROVA · PETITS OBJETS EN SUSPENSION</text>
  <text x="300" y="538" text-anchor="middle" font-family="'DM Sans', sans-serif" font-size="9" fill="#88786F" letter-spacing="1.5">CHARMES ET PORTE-CLÉS FAITS MAIN</text>
  <rect x="25" y="25" width="550" height="550" fill="none" stroke="#3C332E" stroke-width="1" opacity="0.12"/>
</svg>